<?xml version="1.0" encoding="utf-8"?>
<!-- Generator: Adobe Illustrator 23.0.1, SVG Export Plug-In . SVG Version: 6.00 Build 0)  -->
<svg version="1.1" id="Calque_1" xmlns="http://www.w3.org/2000/svg" xmlns:xlink="http://www.w3.org/1999/xlink" x="0px" y="0px"
	 viewBox="0 0 24 24" style="enable-background:new 0 0 24 24;" xml:space="preserve">
<style type="text/css">
	.st0{fill:#C79460;}
	.st1{filter:url(#Adobe_OpacityMaskFilter);}
	.st2{fill-rule:evenodd;clip-rule:evenodd;fill:#FFFFFF;}
	.st3{mask:url(#b_1_);}
	.st4{fill-rule:evenodd;clip-rule:evenodd;fill:#C79460;}
</style>
<g>
	<g>
		<path class="st0" d="M17.6,11l-4.3-4.3c-0.4-0.4-0.4-1,0-1.4c0.4-0.4,1-0.4,1.4,0c0,0,0,0,0,0l6,6c0.4,0.4,0.4,1,0,1.4l-6,6
			c-0.4,0.4-1,0.4-1.4,0c-0.4-0.4-0.4-1,0-1.4l4.3-4.3H4c-0.6,0-1-0.4-1-1s0.4-1,1-1H17.6z"/>
	</g>
	<defs>
		<filter id="Adobe_OpacityMaskFilter" filterUnits="userSpaceOnUse" x="0" y="0" width="24" height="24">
			<feColorMatrix  type="matrix" values="1 0 0 0 0  0 1 0 0 0  0 0 1 0 0  0 0 0 1 0"/>
		</filter>
	</defs>
	<mask maskUnits="userSpaceOnUse" x="0" y="0" width="24" height="24" id="b_1_">
		<g class="st1">
			<path id="a_1_" class="st2" d="M17.6,11l-4.3-4.3c-0.4-0.4-0.4-1,0-1.4c0.4-0.4,1-0.4,1.4,0c0,0,0,0,0,0l6,6c0.4,0.4,0.4,1,0,1.4
				l-6,6c-0.4,0.4-1,0.4-1.4,0c-0.4-0.4-0.4-1,0-1.4l4.3-4.3H4c-0.6,0-1-0.4-1-1s0.4-1,1-1H17.6z"/>
		</g>
	</mask>
	<g class="st3">
		<path class="st4" d="M0,0h24v24H0V0z"/>
	</g>
</g>
</svg>
