<?xml version="1.0" encoding="UTF-8"?>
<svg width="317px" height="219px" viewBox="0 0 317 219" version="1.1" xmlns="http://www.w3.org/2000/svg" xmlns:xlink="http://www.w3.org/1999/xlink">
    <!-- Generator: Sketch 52.4 (67378) - http://www.bohemiancoding.com/sketch -->
    <title>graphmob9</title>
    <desc>Created with Sketch.</desc>
    <defs>
        <linearGradient x1="50%" y1="4.791723%" x2="50%" y2="100%" id="linearGradient-1">
            <stop stop-color="#C79460" stop-opacity="0.560829937" offset="0%"></stop>
            <stop stop-color="#C79460" offset="100%"></stop>
        </linearGradient>
    </defs>
    <g id="Page-1" stroke="none" stroke-width="1" fill="none" fill-rule="evenodd">
        <g id="Artboard-Copy-21" transform="translate(-369.000000, -113.000000)">
            <g id="graphmob9" transform="translate(373.000000, 113.000000)">
                <path d="M1.94333438e-12,154.857753 C12.9983189,131.283329 22.2947633,118.227476 27.8893334,115.690193 C39.4210689,110.460251 49.2213679,135.975122 57.4159361,120.570502 C78.6527943,80.6482361 95.7492395,105.79176 112.963318,154.857753 C130.177396,203.923745 162.727509,121.817907 165.347758,115.690193 C190.71942,56.3560315 214.80684,40.4722783 243.397825,129.840029 C262.458482,189.41853 285.325873,183.302776 312,111.492767 L312,199.492767 L1.42108547e-13,199.492767 L1.94333438e-12,154.857753 Z" id="Path" fill="url(#linearGradient-1)" fill-rule="nonzero" opacity="0.298967634"></path>
                <g id="Group-2" fill="#272727">
                    <g id="Group-7" fill-rule="nonzero">
                        <path id="Line-4" d="M1.41470588,9 L1.41470588,199.5 L1.41470588,200 L0.414705882,200 L0.414705882,199.5 L0.414705882,9 L-3.58529412,9 L0.914705882,-2.7000624e-13 L5.41470588,9 L1.41470588,9 Z"></path>
                        <path id="Line-4-Copy" d="M156.999999,52 L156.999999,354.585294 L156.999999,355.085294 L155.999999,355.085294 L155.999999,354.585294 L155.999999,52 L151.999999,52 L156.499999,43 L160.999999,52 L156.999999,52 Z"></path>
                    </g>
                    <text id="8h" font-family="Brother" font-size="16" font-weight="300">
                        <tspan x="10" y="218">8h</tspan>
                    </text>
                    <text id="18h" font-family="Brother" font-size="16" font-weight="300">
                        <tspan x="286.32" y="216">18h</tspan>
                    </text>
                </g>
            </g>
        </g>
    </g>
</svg>
