<?xml version="1.0" encoding="UTF-8"?>
<svg width="934px" height="219px" viewBox="0 0 934 219" version="1.1" xmlns="http://www.w3.org/2000/svg" xmlns:xlink="http://www.w3.org/1999/xlink">
    <!-- Generator: Sketch 52.4 (67378) - http://www.bohemiancoding.com/sketch -->
    <title>graphdesk7</title>
    <desc>Created with Sketch.</desc>
    <defs>
        <linearGradient x1="50%" y1="4.791723%" x2="50%" y2="100%" id="linearGradient-1">
            <stop stop-color="#C79460" stop-opacity="0.560829937" offset="0%"></stop>
            <stop stop-color="#C79460" offset="100%"></stop>
        </linearGradient>
    </defs>
    <g id="Page-1" stroke="none" stroke-width="1" fill="none" fill-rule="evenodd">
        <g id="Artboard-Copy-7" transform="translate(-61.000000, -112.000000)">
            <g id="graphdesk7" transform="translate(65.000000, 112.000000)">
                <path d="M1,42.8561114 C41.2134821,95.9552755 89.5046766,104.336572 145.873583,68 C230.426944,13.4951424 273.673061,85.0695973 329.624826,76.3111836 C421.440224,61.9388531 409.428995,132 473.165558,132 C565.376134,132 603.520596,167.387987 714.426599,184.193993 C825.332602,201 916,190.646663 916,194.016645 C916,196.2633 916,198.257752 916,200 L1,200 L1,42.8561114 Z" id="Path" fill="url(#linearGradient-1)" fill-rule="nonzero" opacity="0.298967634"></path>
                <path id="Line-4" d="M1.5,9 L1.5,199.5 L1.5,200 L0.5,200 L0.5,199.5 L0.5,9 L-3.5,9 L1,-2.84217094e-13 L5.5,9 L1.5,9 Z" fill="#272727" fill-rule="nonzero"></path>
                <path id="Line-4-Copy" d="M465,-255.773318 L465,663.5 L465,664 L464,664 L464,663.5 L464,-255.773318 L460,-255.773318 L464.5,-264.773318 L469,-255.773318 L465,-255.773318 Z" fill="#272727" fill-rule="nonzero"></path>
                <text id="8h" font-family="Brother" font-size="16" font-weight="300" fill="#272727">
                    <tspan x="0" y="218">8h</tspan>
                </text>
                <text id="18h" font-family="Brother" font-size="16" font-weight="300" fill="#272727">
                    <tspan x="904.32" y="218">18h</tspan>
                </text>
            </g>
        </g>
    </g>
</svg>
