<?xml version="1.0" encoding="UTF-8"?>
<svg width="317px" height="219px" viewBox="0 0 317 219" version="1.1" xmlns="http://www.w3.org/2000/svg" xmlns:xlink="http://www.w3.org/1999/xlink">
    <!-- Generator: Sketch 52.4 (67378) - http://www.bohemiancoding.com/sketch -->
    <title>graphmob5</title>
    <desc>Created with Sketch.</desc>
    <defs>
        <linearGradient x1="50%" y1="4.791723%" x2="50%" y2="100%" id="linearGradient-1">
            <stop stop-color="#C79460" stop-opacity="0.560829937" offset="0%"></stop>
            <stop stop-color="#C79460" offset="100%"></stop>
        </linearGradient>
    </defs>
    <g id="Page-1" stroke="none" stroke-width="1" fill="none" fill-rule="evenodd">
        <g id="Artboard-Copy-20" transform="translate(-370.000000, -113.000000)">
            <g id="graphmob5" transform="translate(374.000000, 113.000000)">
                <path d="M0,87.605149 C24.1193853,136.271816 43.2580307,147.297727 57.4159361,120.682883 C78.6527943,80.7606178 99.9464931,-1.95669921 117.160571,47.1092935 C134.374649,96.1752863 149.345891,126.910417 161.000715,131.605149 C178.148848,138.512665 208.564964,77.2075333 243.51615,104.406341 C266.81694,122.53888 289.64489,124.938482 312,111.605149 L312,199.605149 L0,199.605149 L0,87.605149 Z" id="Path" fill="url(#linearGradient-1)" fill-rule="nonzero" opacity="0.298967634"></path>
                <g id="Group-2" fill="#272727">
                    <g id="Group-7" fill-rule="nonzero">
                        <path id="Line-4" d="M1.41470588,9 L1.41470588,199.5 L1.41470588,200 L0.414705882,200 L0.414705882,199.5 L0.414705882,9 L-3.58529412,9 L0.914705882,-2.7000624e-13 L5.41470588,9 L1.41470588,9 Z"></path>
                        <path id="Line-4-Copy" d="M156.999999,52 L156.999999,354.585294 L156.999999,355.085294 L155.999999,355.085294 L155.999999,354.585294 L155.999999,52 L151.999999,52 L156.499999,43 L160.999999,52 L156.999999,52 Z"></path>
                    </g>
                    <text id="8h" font-family="Brother" font-size="16" font-weight="300">
                        <tspan x="10" y="218">8h</tspan>
                    </text>
                    <text id="18h" font-family="Brother" font-size="16" font-weight="300">
                        <tspan x="286.32" y="216">18h</tspan>
                    </text>
                </g>
            </g>
        </g>
    </g>
</svg>
