<?xml version="1.0" encoding="UTF-8"?>
<svg width="317px" height="219px" viewBox="0 0 317 219" version="1.1" xmlns="http://www.w3.org/2000/svg" xmlns:xlink="http://www.w3.org/1999/xlink">
    <!-- Generator: Sketch 52.4 (67378) - http://www.bohemiancoding.com/sketch -->
    <title>graphmob8</title>
    <desc>Created with Sketch.</desc>
    <defs>
        <linearGradient x1="50%" y1="4.791723%" x2="50%" y2="100%" id="linearGradient-1">
            <stop stop-color="#C79460" stop-opacity="0.560829937" offset="0%"></stop>
            <stop stop-color="#C79460" offset="100%"></stop>
        </linearGradient>
    </defs>
    <g id="Page-1" stroke="none" stroke-width="1" fill="none" fill-rule="evenodd">
        <g id="Artboard-Copy-15" transform="translate(-370.000000, -113.000000)">
            <g id="graphmob8" transform="translate(374.000000, 113.000000)">
                <path d="M1,61.6513401 C29.6432504,30.7612506 54.1270078,21.2462706 74.4512722,33.1064001 C104.937669,50.8965944 111.775568,1.31758598 145.865307,43.5676606 C179.955047,85.8177351 225.53026,85.3645411 244.773033,125.25144 C264.015805,165.13834 311.320961,155.047428 311.66048,177.629489 C311.886827,192.684196 312,200.378216 312,200.711549 L1.33951965,200.711549 L1,61.6513401 Z" id="Path" fill="url(#linearGradient-1)" fill-rule="nonzero" opacity="0.298967634"></path>
                <g id="Group-2" fill="#272727">
                    <g id="Group-7" fill-rule="nonzero">
                        <path id="Line-4" d="M1.41470588,9 L1.41470588,199.5 L1.41470588,200 L0.414705882,200 L0.414705882,199.5 L0.414705882,9 L-3.58529412,9 L0.914705882,-2.7000624e-13 L5.41470588,9 L1.41470588,9 Z"></path>
                        <path id="Line-4-Copy" d="M156.999999,52 L156.999999,354.585294 L156.999999,355.085294 L155.999999,355.085294 L155.999999,354.585294 L155.999999,52 L151.999999,52 L156.499999,43 L160.999999,52 L156.999999,52 Z"></path>
                    </g>
                    <text id="8h" font-family="Brother" font-size="16" font-weight="300">
                        <tspan x="10" y="218">8h</tspan>
                    </text>
                    <text id="18h" font-family="Brother" font-size="16" font-weight="300">
                        <tspan x="286.32" y="216">18h</tspan>
                    </text>
                </g>
            </g>
        </g>
    </g>
</svg>
