<?xml version="1.0" encoding="UTF-8"?>
<svg width="317px" height="219px" viewBox="0 0 317 219" version="1.1" xmlns="http://www.w3.org/2000/svg" xmlns:xlink="http://www.w3.org/1999/xlink">
    <!-- Generator: Sketch 52.4 (67378) - http://www.bohemiancoding.com/sketch -->
    <title>graphmob6</title>
    <desc>Created with Sketch.</desc>
    <defs>
        <linearGradient x1="50%" y1="4.791723%" x2="50%" y2="100%" id="linearGradient-1">
            <stop stop-color="#C79460" stop-opacity="0.560829937" offset="0%"></stop>
            <stop stop-color="#C79460" offset="100%"></stop>
        </linearGradient>
    </defs>
    <g id="Page-1" stroke="none" stroke-width="1" fill="none" fill-rule="evenodd">
        <g id="Artboard-Copy-18" transform="translate(-369.000000, -113.000000)">
            <g id="graphmob6" transform="translate(373.000000, 113.000000)">
                <path d="M2.0783375e-13,43.5166792 C2.09186835e-13,33.2076366 22.7739315,180.810488 46.5137065,161.143889 C70.2534816,141.477289 62.611434,251.896179 94.8147603,154.720707 C106.204819,120.350521 146.24941,158.827332 161.000715,132.143889 C209.996153,43.5166792 199.859294,193.352608 243.687948,193.352608 C287.516601,193.352608 312,141.340958 312,167.267656 C312,184.552122 312,195.510866 312,200.143889 L0,200.143889 C1.38555833e-13,102.598444 2.0783375e-13,50.3893743 2.0783375e-13,43.5166792 Z" id="Path" fill="url(#linearGradient-1)" fill-rule="nonzero" opacity="0.298967634"></path>
                <g id="Group-2" fill="#272727">
                    <g id="Group-7" fill-rule="nonzero">
                        <path id="Line-4" d="M1.41470588,9 L1.41470588,199.5 L1.41470588,200 L0.414705882,200 L0.414705882,199.5 L0.414705882,9 L-3.58529412,9 L0.914705882,-2.7000624e-13 L5.41470588,9 L1.41470588,9 Z"></path>
                        <path id="Line-4-Copy" d="M156.999999,52 L156.999999,354.585294 L156.999999,355.085294 L155.999999,355.085294 L155.999999,354.585294 L155.999999,52 L151.999999,52 L156.499999,43 L160.999999,52 L156.999999,52 Z"></path>
                    </g>
                    <text id="8h" font-family="Brother" font-size="16" font-weight="300">
                        <tspan x="10" y="218">8h</tspan>
                    </text>
                    <text id="18h" font-family="Brother" font-size="16" font-weight="300">
                        <tspan x="286.32" y="216">18h</tspan>
                    </text>
                </g>
            </g>
        </g>
    </g>
</svg>
