<?xml version="1.0" encoding="UTF-8"?>
<svg width="934px" height="219px" viewBox="0 0 934 219" version="1.1" xmlns="http://www.w3.org/2000/svg" xmlns:xlink="http://www.w3.org/1999/xlink">
    <!-- Generator: Sketch 52.4 (67378) - http://www.bohemiancoding.com/sketch -->
    <title>graphdesk10</title>
    <desc>Created with Sketch.</desc>
    <defs>
        <linearGradient x1="50%" y1="4.791723%" x2="50%" y2="100%" id="linearGradient-1">
            <stop stop-color="#C79460" stop-opacity="0.560829937" offset="0%"></stop>
            <stop stop-color="#C79460" offset="100%"></stop>
        </linearGradient>
    </defs>
    <g id="Page-1" stroke="none" stroke-width="1" fill="none" fill-rule="evenodd">
        <g id="Artboard-Copy-5" transform="translate(-60.000000, -112.000000)">
            <g id="graphdesk10" transform="translate(64.000000, 112.000000)">
                <path d="M1,192.568559 C59.3846855,187.170995 105.052843,176.648142 138.004471,161 C187.431914,137.527787 197.625801,206.283723 278.870588,72.985114 C360.115375,-60.3134952 348.264362,149.523451 473.165558,132 C558.568935,120.018034 590.306499,161 718.842453,161 C847.378407,161 916,192.568559 916,192.568559 C916,192.568559 916,195.045706 916,200 L1,200 L1,192.568559 Z" id="Path" fill="url(#linearGradient-1)" fill-rule="nonzero" opacity="0.298967634"></path>
                <path id="Line-4" d="M1.5,9 L1.5,199.5 L1.5,200 L0.5,200 L0.5,199.5 L0.5,9 L-3.5,9 L1,-2.84217094e-13 L5.5,9 L1.5,9 Z" fill="#272727" fill-rule="nonzero"></path>
                <path id="Line-4-Copy" d="M465,-255.773318 L465,663.5 L465,664 L464,664 L464,663.5 L464,-255.773318 L460,-255.773318 L464.5,-264.773318 L469,-255.773318 L465,-255.773318 Z" fill="#272727" fill-rule="nonzero"></path>
                <text id="8h" font-family="Brother" font-size="16" font-weight="300" fill="#272727">
                    <tspan x="0" y="218">8h</tspan>
                </text>
                <text id="18h" font-family="Brother" font-size="16" font-weight="300" fill="#272727">
                    <tspan x="904.32" y="218">18h</tspan>
                </text>
            </g>
        </g>
    </g>
</svg>
