<?xml version="1.0" encoding="UTF-8"?>
<svg width="16px" height="18px" viewBox="0 0 16 18" version="1.1" xmlns="http://www.w3.org/2000/svg" xmlns:xlink="http://www.w3.org/1999/xlink">
    <!-- Generator: Sketch 52.2 (67145) - http://www.bohemiancoding.com/sketch -->
    <title>Group 9 Copy</title>
    <desc>Created with Sketch.</desc>
    <defs>
        <polygon id="path-1" points="0.161630769 0.0923076923 4.49986154 0.0923076923 4.49986154 4.43072308 0.161630769 4.43072308"></polygon>
        <polygon id="path-3" points="0 0.161584615 10.2230308 0.161584615 10.2230308 10.3846154 0 10.3846154"></polygon>
    </defs>
    <g id="Desktop" stroke="none" stroke-width="1" fill="none" fill-rule="evenodd" opacity="0.4">
        <g id="Elite-Maquette-Desk-FicheProduit" transform="translate(-588.000000, -1774.000000)">
            <g id="Group-8" transform="translate(528.000000, 1743.000000)">
                <g id="Group-9-Copy" transform="translate(60.000000, 31.000000)">
                    <g id="Group-3" transform="translate(11.076923, 0.138462)">
                        <mask id="mask-2" fill="white">
                            <use xlink:href="#path-1"></use>
                        </mask>
                        <g id="Clip-2"></g>
                        <path d="M2.33086154,0.0922615385 C3.52878462,0.0922615385 4.49986154,1.06333846 4.49986154,2.26149231 C4.49986154,3.45964615 3.52878462,4.43072308 2.33086154,4.43072308 C1.13293846,4.43072308 0.161630769,3.45964615 0.161630769,2.26149231 C0.161630769,1.06333846 1.13293846,0.0922615385 2.33086154,0.0922615385" id="Fill-1" fill="#000000" mask="url(#mask-2)"></path>
                    </g>
                    <g id="Group-6" transform="translate(0.000000, 7.523077)">
                        <mask id="mask-4" fill="white">
                            <use xlink:href="#path-3"></use>
                        </mask>
                        <g id="Clip-5"></g>
                        <path d="M5.07687692,9.41543077 C2.76918462,9.41543077 0.899953846,7.54596923 0.899953846,5.23827692 C0.899953846,2.93081538 2.76918462,1.03850769 5.07687692,1.03850769 C5.58456923,1.03850769 6.09226154,1.13081538 6.5538,1.31543077 C6.73841538,1.38466154 6.92303077,1.47696923 7.10764615,1.56927692 C7.24610769,1.63850769 7.36149231,1.70773846 7.47687692,1.80004615 C7.52303077,1.82312308 7.56918462,1.86927692 7.59226154,1.89235385 C7.66149231,1.96158462 7.7538,2.00773846 7.82303077,2.07696923 C7.89226154,2.1462 7.96149231,2.21543077 8.03072308,2.28466154 C8.09995385,2.35389231 8.16918462,2.42312308 8.23841538,2.51543077 C8.30764615,2.58466154 8.37687692,2.67696923 8.42303077,2.7462 L8.42303077,2.76927692 L8.42303077,2.79235385 L8.44633846,2.81543077 C8.9538,3.53081538 9.23072308,4.38466154 9.23072308,5.26158462 C9.27687692,7.54596923 7.40764615,9.41543077 5.07687692,9.41543077 M9.41533846,2.51543077 C9.36941538,2.42312308 9.29995385,2.33081538 9.25403077,2.26158462 L9.20764615,2.21543077 C9.18456923,2.19235385 9.16149231,2.1462 9.13864615,2.12312308 C9.11533846,2.10004615 9.11533846,2.10004615 9.09226154,2.07696923 C8.99995385,1.96158462 8.90787692,1.86927692 8.83841538,1.77696923 C8.79249231,1.73081538 8.74610769,1.68466154 8.69995385,1.63850769 C8.6538,1.59235385 8.58456923,1.5462 8.53841538,1.50004615 C8.49226154,1.45389231 8.44633846,1.43081538 8.42303077,1.38466154 C8.28456923,1.26927692 8.14610769,1.17696923 8.00764615,1.08466154 C7.96149231,1.03850769 7.91533846,1.01543077 7.86918462,0.992353846 C7.7538,0.923123077 7.61533846,0.853892308 7.49995385,0.784661538 C7.36149231,0.715430769 7.22303077,0.6462 7.06149231,0.576969231 C7.01533846,0.553892308 6.96918462,0.530815385 6.92303077,0.507738462 C6.80764615,0.461584615 6.71533846,0.438507692 6.59995385,0.392353846 C6.11533846,0.230815385 5.60764615,0.161584615 5.09995385,0.161584615 C2.28456923,0.161584615 -4.61538462e-05,2.4462 -4.61538462e-05,5.28466154 C-4.61538462e-05,8.10004615 2.28456923,10.3846615 5.09995385,10.3846615 C7.91533846,10.3846615 10.2230308,8.10004615 10.2230308,5.28466154 C10.2230308,4.50004615 10.0384154,3.73850769 9.69226154,3.02312308 C9.60018462,2.81543077 9.50764615,2.65389231 9.41533846,2.51543077" id="Fill-4" fill="#000000" mask="url(#mask-4)"></path>
                    </g>
                    <path d="M9.76144615,9.57687692 L11.7691385,7.03841538 C12.0924462,6.64610769 12.2306769,6.11533846 12.1386,5.60764615 C12.0460615,5.09995385 11.7691385,4.66149231 11.3309077,4.38456923 L10.4537538,3.83072308 L10.3616769,3.76149231 L5.44606154,0.646107692 L2.44606154,3.73841538 L3.11529231,4.38456923 L5.58452308,1.82303077 L9.5076,4.31533846 L6.73836923,7.66149231 C6.8076,7.68456923 6.90013846,7.70764615 6.96913846,7.7538 C7.03836923,7.77687692 7.1076,7.82303077 7.17683077,7.84610769 C7.31529231,7.91533846 7.47706154,7.98456923 7.61529231,8.0538 C8.12298462,8.33072308 8.58452308,8.67687692 8.97706154,9.09226154 C9.09244615,9.20764615 9.18452308,9.32303077 9.27683077,9.43841538 C9.32321538,9.48456923 9.34606154,9.53072308 9.36936923,9.57687692 L9.39221538,9.59995385 L9.41529231,9.64610769 C9.46144615,9.71533846 9.5076,9.78456923 9.55398462,9.83072308 C9.69221538,10.0384154 9.83090769,10.2691846 9.92298462,10.4999538 L11.6537538,10.4999538 L12.5306769,16.1538 L13.4537538,16.0153385 L12.4614462,9.57687692 L9.76144615,9.57687692 Z" id="Fill-7" fill="#000000"></path>
                </g>
            </g>
        </g>
    </g>
</svg>